<svg width="68" height="68" viewBox="0 0 68 68" fill="none" xmlns="http://www.w3.org/2000/svg">
<g filter="url(#filter0_d_2035_3240)">
<rect x="10" y="7" width="48" height="48" rx="10" fill="white"/>
</g>
<g clip-path="url(#clip0_2035_3240)">
<path d="M38.6478 31.4984C37.041 31.548 36.0368 31.82 36.0368 32.8264C36.0368 33.4784 36.5874 34.1792 37.9757 34.1792C39.8358 34.1792 40.8316 33.2224 40.8316 31.6472V31.474L38.6483 31.4988L38.6478 31.4984ZM42.6129 33.5768L42.6739 34.9788H41.0234C40.9798 34.624 40.9624 34.2696 40.9624 33.9228C40.0717 34.962 39.0057 35.2588 37.5301 35.2588C35.3468 35.2588 34.1766 34.17 34.1766 32.908C34.1766 31.0768 35.7661 30.4336 38.539 30.376C39.2941 30.36 40.1412 30.36 40.84 30.36V30.1784C40.84 28.9576 40.0099 28.4584 38.5699 28.4584C37.5043 28.4584 36.7098 28.8792 36.631 29.5968H34.7624C34.9631 27.7988 36.963 27.3448 38.7181 27.3448C40.8358 27.3448 42.6044 28.054 42.6044 30.1576V33.5804L42.6129 33.5768Z" fill="#F5AF02"/>
<path d="M23.2859 30.608C23.2161 29.0408 22.0154 28.4552 20.7363 28.4552C19.3564 28.4552 18.2472 29.1152 18.0554 30.608H23.2859ZM18.0202 31.7216C18.1163 33.2476 19.2256 34.1464 20.7537 34.1464C21.8104 34.1464 22.7536 33.7464 23.0678 32.8516H24.9017C24.5438 34.6496 22.5172 35.2596 20.7795 35.2596C17.6094 35.2596 16.2122 33.61 16.2122 31.3916C16.2122 28.942 17.6619 27.3336 20.8147 27.3336C23.3211 27.3336 25.155 28.5708 25.155 31.2764V31.722L18.0202 31.7216Z" fill="#E53238"/>
<path d="M29.7054 34.1131C31.3559 34.1131 32.4825 32.9915 32.4825 31.3003C32.4825 29.6091 31.3559 28.4875 29.7054 28.4875C28.0634 28.4875 26.9283 29.6091 26.9283 31.3003C26.9283 32.9915 28.0634 34.1131 29.7054 34.1131ZM25.1546 24.3879H26.9271V28.6027C27.8004 27.6211 28.9969 27.3407 30.1755 27.3407C32.1577 27.3407 34.3503 28.6027 34.3503 31.3247C34.3503 33.6047 32.6036 35.2675 30.1404 35.2675C28.8478 35.2675 27.6428 34.8303 26.8919 33.9643C26.8919 34.3107 26.875 34.6571 26.8309 34.9871H25.0847L25.1457 33.2551V24.3879H25.1546Z" fill="#0064D2"/>
<path d="M51.6518 27.6136L46.1582 37.8H44.1676L45.7482 34.9708L41.6176 27.6136H43.6962L46.7355 33.3624L49.7658 27.6136H51.6518Z" fill="#86B817"/>
</g>
<defs>
<filter id="filter0_d_2035_3240" x="0" y="0" width="68" height="68" filterUnits="userSpaceOnUse" color-interpolation-filters="sRGB">
<feFlood flood-opacity="0" result="BackgroundImageFix"/>
<feColorMatrix in="SourceAlpha" type="matrix" values="0 0 0 0 0 0 0 0 0 0 0 0 0 0 0 0 0 0 127 0" result="hardAlpha"/>
<feOffset dy="3"/>
<feGaussianBlur stdDeviation="5"/>
<feColorMatrix type="matrix" values="0 0 0 0 0 0 0 0 0 0 0 0 0 0 0 0 0 0 0.102 0"/>
<feBlend mode="normal" in2="BackgroundImageFix" result="effect1_dropShadow_2035_3240"/>
<feBlend mode="normal" in="SourceGraphic" in2="effect1_dropShadow_2035_3240" result="shape"/>
</filter>
<clipPath id="clip0_2035_3240">
<rect width="36" height="14" fill="white" transform="translate(16 24)"/>
</clipPath>
</defs>
</svg>
