<svg width="200" height="184" viewBox="0 0 200 184" fill="none" xmlns="http://www.w3.org/2000/svg">
<path fill-rule="evenodd" clip-rule="evenodd" d="M28.6218 66.2893C28.6218 66.0626 28.8052 65.8788 29.0314 65.8788H34.5945V66.6997H29.0314C28.8052 66.6997 28.6218 66.5159 28.6218 66.2893ZM0.400635 71.2504C0.400635 70.7976 0.766532 70.4304 1.21838 70.4296H34.5535V72.0719H1.21838C0.766266 72.0712 0.400258 71.7035 0.400635 71.2504Z" fill="white"/>
<path fill-rule="evenodd" clip-rule="evenodd" d="M123.35 25.2997H151.049C149.053 21.5129 143.261 12.9785 132.234 14.4491C126.958 15.1714 124.283 17.521 123.056 20.3303C122.912 21.9924 123.012 23.6669 123.35 25.2997ZM169.078 33.5304V35.1734H197.955C198.407 35.1727 198.773 34.8054 198.773 34.3526C198.773 34.1349 198.687 33.926 198.534 33.7718C198.38 33.6176 198.172 33.5308 197.955 33.5304H175.393C173.471 29.9325 168.342 21.5054 161.888 20.2646C156.006 19.1394 153.446 22.9425 152.439 25.2997H160.669C165.226 25.3113 168.95 28.9564 169.078 33.5304ZM122.213 25.3085C122.203 24.7271 122.228 24.1456 122.287 23.567C122.287 24.1662 122.401 24.7497 122.54 25.3085H122.213Z" fill="white"/>
<path fill-rule="evenodd" clip-rule="evenodd" d="M123.08 20.3713C122.933 22.0185 123.024 23.6784 123.35 25.2996L122.532 25.3085C122.434 24.7497 122.344 24.1662 122.287 23.567C121.929 21.018 122.352 18.4204 123.497 16.1167C125.117 13.1919 128.185 11.4011 132.61 10.7937C144.586 9.15074 150.558 19.3282 152.194 22.6142C153.012 20.3221 155.605 15.3199 162.371 16.6092C170.183 18.1045 175.958 28.5364 176.866 30.2615H197.3C197.527 30.2615 197.71 30.4454 197.71 30.6722C197.71 30.8991 197.527 31.083 197.3 31.083H176.645C176.49 31.0848 176.348 30.999 176.277 30.8614C176.273 30.856 176.259 30.8287 176.233 30.7813C175.663 29.7351 169.752 18.8851 162.223 17.4389C154.353 15.9273 152.742 23.5506 152.677 23.8789C152.641 24.0586 152.491 24.1925 152.308 24.2073C152.128 24.2182 151.961 24.1122 151.891 23.9446C151.891 23.9435 151.89 23.9415 151.889 23.9386C151.744 23.5803 146.171 9.79012 132.717 11.6235C128.561 12.2062 125.697 13.8574 124.209 16.5518C123.58 17.7358 123.196 19.0349 123.08 20.3713ZM179.713 115.41C180.164 115.41 180.53 115.042 180.53 114.59C180.531 114.137 180.165 113.769 179.713 113.768H169.078V115.41H179.713ZM198.781 119.928H169.095V120.75H198.781C199.007 120.75 199.19 120.566 199.19 120.339C199.19 120.113 199.007 119.929 198.781 119.929V119.928Z" fill="white"/>
<path d="M18.9536 8.21432C18.8512 9.23351 18.9093 10.2616 19.1256 11.2616H19.6738C19.3167 10.2773 19.075 9.25462 18.9536 8.21432V8.21432Z" fill="white"/>
<path d="M20.6143 11.8697C20.6813 11.7467 20.6813 11.598 20.6143 11.475C20.6143 11.475 19.2641 8.3785 19.7959 5.66775C19.8938 5.16527 20.0676 4.68068 20.3112 4.23064C21.1297 2.78463 22.6593 1.89815 24.9085 1.59376C32.271 0.58347 35.2566 8.01666 35.3795 8.32925C35.3459 8.50011 35.4236 8.6736 35.5732 8.76207C35.7229 8.85054 35.912 8.83472 36.045 8.72261C36.178 8.6105 36.2259 8.4265 36.1645 8.26359C36.1645 8.09122 37.0566 4.02475 41.2614 4.82163C45.5965 5.64313 48.9099 11.6153 48.9426 11.6727C49.0144 11.8045 49.1525 11.8864 49.3023 11.8861H60.7556C60.982 11.8861 61.1655 11.7022 61.1655 11.4754C61.1655 11.2485 60.982 11.0646 60.7556 11.0646H49.5884C48.9256 9.93943 45.7433 4.83804 41.4655 4.01654C39.0508 3.4024 36.5672 4.73487 35.7385 7.08914C34.6027 4.93654 31.2239 -0.0984929 24.8443 0.779782C22.3242 1.12453 20.574 2.15123 19.6416 3.83528C18.969 5.18047 18.7261 6.70064 18.946 8.18903C19.0674 9.22933 19.3091 10.252 19.6662 11.2363H7.08324C6.85686 11.2363 6.67334 11.4202 6.67334 11.6471C6.67334 11.8739 6.85686 12.0578 7.08324 12.0578H20.2696C20.4089 12.0577 20.5385 11.9866 20.6136 11.869L20.6143 11.8697Z" fill="white"/>
<path d="M6.94465 15.6072H61.3112C61.7631 15.6064 62.129 15.2391 62.129 14.7863C62.1293 14.5687 62.0434 14.3597 61.89 14.2055C61.7366 14.0514 61.5284 13.9645 61.3112 13.9642H48.5665C47.5597 12.0585 44.6641 7.15479 40.9829 6.44821C36.3365 5.56104 35.4129 10.2103 35.4129 10.2103C35.4129 10.2103 32.3037 2.15259 24.4996 3.21966C22.0948 3.54798 20.6634 4.48508 19.8532 5.68416C19.2969 8.39491 20.6307 11.434 20.6716 11.4914C20.7265 11.6187 20.7139 11.765 20.638 11.8809C20.5621 11.9967 20.4331 12.0666 20.2948 12.0667H19.3133C19.4575 12.6265 19.6406 13.1755 19.8614 13.7097H6.67503L21.4737 13.9642H6.94397C6.49185 13.9649 6.12584 14.3326 6.12622 14.7857C6.12584 15.2387 6.49185 15.6064 6.94397 15.6072H6.94465Z" fill="white"/>
<ellipse cx="101.689" cy="178.185" rx="63.7652" ry="5.29017" fill="white"/>
<path d="M20.7883 98.442L22.3583 83.3828C22.4951 82.0034 23.7217 80.9963 25.0982 81.133L25.1262 81.1365L47.6149 83.5148L47.6218 83.4122C48.1822 77.9134 44.2027 72.9892 38.7194 72.3947L23.7173 70.8078C18.2313 70.2422 13.3214 74.2265 12.733 79.7219L10.6409 99.7512C10.0812 105.249 14.0607 110.174 19.5439 110.768L34.546 112.355C39.9842 112.934 44.8682 109.029 45.5119 103.586L23.0354 101.223C22.3737 101.158 21.7648 100.832 21.3427 100.317C20.9207 99.8024 20.72 99.1407 20.7849 98.4776L20.7883 98.442Z" fill="white"/>
<path d="M19.2866 94.2928L20.8566 79.2335C20.9227 78.5662 21.2526 77.9532 21.7725 77.5311C22.2925 77.109 22.9594 76.9129 23.6245 76.9865L46.1132 79.3655L46.1201 79.2629C46.6805 73.7641 42.7003 68.8399 37.2177 68.2455L22.2156 66.6586C16.7296 66.0929 11.8197 70.0773 11.2313 75.5727L9.13917 95.602C8.57944 101.1 12.559 106.024 18.0422 106.619L33.0436 108.206C38.4825 108.784 43.3665 104.879 44.0095 99.4366L21.5337 97.0733C20.872 97.0085 20.2631 96.6828 19.841 96.168C19.419 95.6532 19.2183 94.9915 19.2832 94.3284L19.2866 94.2928Z" fill="white"/>
<path d="M19.2866 94.2928L20.8566 79.2335C20.9227 78.5662 21.2526 77.9532 21.7725 77.5311C22.2925 77.109 22.9594 76.9129 23.6245 76.9865L46.1132 79.3655L46.1201 79.2629C46.6805 73.7641 42.7003 68.8399 37.2177 68.2455L22.2156 66.6586C16.7296 66.0929 11.8197 70.0773 11.2313 75.5727L9.13917 95.602C8.57944 101.1 12.559 106.024 18.0422 106.619L33.0436 108.206C38.4825 108.784 43.3665 104.879 44.0095 99.4366L21.5337 97.0733C20.872 97.0085 20.2631 96.6828 19.841 96.168C19.419 95.6532 19.2183 94.9915 19.2832 94.3284L19.2866 94.2928" stroke="#2A2661" stroke-width="1.63823"/>
<path fill-rule="evenodd" clip-rule="evenodd" d="M9.89834 95.1656C9.59939 98.079 10.6273 100.972 12.6963 103.041C12.6301 102.455 12.6253 101.854 12.6895 101.243L15.1755 77.5399C15.6485 73.0323 19.6792 69.7613 24.1782 70.2346L43.1359 72.232C41.7454 70.3024 39.7352 68.9583 37.0915 68.6717L22.5632 67.1347C17.2499 66.5875 12.4942 70.4453 11.9243 75.767L9.89834 95.1656ZM106.116 110.532L116.784 121.231C120.682 125.155 120.676 131.503 116.773 135.422L102.569 149.668C98.6608 153.567 92.3427 153.567 88.4342 149.668L77.7721 138.974C73.9045 135.1 73.8594 128.834 77.6724 124.904L93.6403 140.919L93.6601 140.94C94.6441 141.915 96.2301 141.905 97.2028 140.919L107.885 130.206C108.36 129.733 108.628 129.09 108.628 128.419C108.628 127.748 108.36 127.105 107.885 126.632L91.9065 110.607L91.9816 110.532C95.8902 106.632 102.208 106.632 106.116 110.532Z" fill="white"/>
<path d="M116.784 117.124L106.116 106.424C102.208 102.526 95.8902 102.526 91.9816 106.424L91.9066 106.5L107.885 122.526C108.36 122.998 108.627 123.641 108.627 124.312C108.627 124.983 108.36 125.626 107.885 126.098L97.2028 136.812C96.2302 137.798 94.6441 137.807 93.6601 136.832L93.6403 136.812L77.6724 120.797C73.8595 124.727 73.9045 130.993 77.7721 134.867L88.4342 145.561C92.3427 149.46 98.6608 149.46 102.569 145.561L116.773 131.314C120.677 127.395 120.682 121.048 116.784 117.123" fill="white"/>
<path d="M116.784 117.124L106.116 106.424C102.208 102.526 95.8902 102.526 91.9816 106.424L91.9066 106.5L107.885 122.526C108.36 122.998 108.627 123.641 108.627 124.312C108.627 124.983 108.36 125.626 107.885 126.098L97.2028 136.812C96.2302 137.798 94.6441 137.807 93.6601 136.832L93.6403 136.812L77.6724 120.797C73.8595 124.727 73.9045 130.993 77.7721 134.867L88.4342 145.561C92.3427 149.46 98.6608 149.46 102.569 145.561L116.773 131.314C120.677 127.395 120.682 121.048 116.784 117.123" stroke="#2A2661" stroke-width="1.63823"/>
<path d="M94.6177 147.684C97.3924 147.955 100.262 147.028 102.391 144.904L116.118 131.136C119.891 127.348 119.895 121.214 116.128 117.421L105.819 107.082C104.021 105.283 101.587 104.267 99.0457 104.255L112.85 118.089C116.049 121.294 116.049 126.491 112.85 129.697L96.0382 146.545C95.6082 146.977 95.1318 147.358 94.6177 147.684H94.6177Z" fill="white"/>
<rect x="93.1445" y="42.0522" width="97.9427" height="9.64119" rx="4.81058" transform="rotate(18 93.1445 42.0522)" fill="white"/>
<rect x="93.5488" y="42.8474" width="96.6819" height="8.37781" rx="4.1802" transform="rotate(18 93.5488 42.8474)" stroke="#2A2661" stroke-width="1.26075"/>
<path d="M99.0738 44.8611L181.468 71.6697C182.592 72.0351 183.492 72.8883 183.918 73.9926C184.16 74.6185 184.266 75.3743 184.132 75.3319C184.043 75.3046 155.419 65.9842 98.2595 47.3721C97.5695 47.1454 97.1927 46.4018 97.4171 45.7097C97.6416 45.0177 98.3826 44.6381 99.0738 44.8611Z" fill="white"/>
<path d="M126.258 79.6481C119.741 85.7679 109.787 88.164 100.213 85.047C90.6397 81.9292 83.9912 74.1281 82.3086 65.3385C90.0847 63.2543 96.5434 57.6693 99.0963 49.7956C100.048 46.8647 100.399 43.7711 100.127 40.7009C104.448 40.309 109.2 40.9438 114.006 42.5088C118.811 44.0731 123.028 46.3584 126.294 49.221C124.273 51.5446 122.742 54.2538 121.793 57.1857C119.24 65.0587 121.19 73.3825 126.257 79.6487L126.258 79.6481Z" fill="#2A2661" stroke="#2A2661" stroke-width="1.26075"/>
<path d="M88.0183 63.6312C86.4598 64.5865 84.7866 65.34 83.0388 65.8734C84.9276 74.1383 91.7569 81.5079 100.723 84.4273C109.515 87.2899 119.023 85.1277 125.326 79.5844C124.318 78.3244 123.442 76.9638 122.713 75.5241C116.445 78.4483 109.457 79.605 103.011 77.5064C96.3098 75.3244 91.2798 69.9775 88.0183 63.6312V63.6312Z" fill="white"/>
<path d="M60.4246 93.1991C61.3631 92.2556 62.6379 91.7253 63.9673 91.7253C65.2967 91.7253 66.5714 92.2556 67.5099 93.1991L93.8294 119.597C95.7884 121.561 95.7884 124.742 93.8294 126.702C92.8909 127.646 91.6161 128.176 90.2867 128.176C88.9573 128.176 87.6826 127.646 86.7441 126.702L60.4246 100.304C58.4656 98.3442 58.4656 95.1629 60.4246 93.1984" fill="white"/>
<path d="M61.2422 89.0916C62.1808 88.1481 63.4555 87.6178 64.7849 87.6178C66.1143 87.6178 67.389 88.1481 68.3276 89.0916L94.647 115.489C96.6061 117.454 96.6061 120.635 94.647 122.595C93.7085 123.538 92.4338 124.068 91.1043 124.068C89.7749 124.068 88.5002 123.538 87.5617 122.595L61.2422 96.1971C59.2832 94.2374 59.2832 91.0567 61.2422 89.0916Z" fill="white"/>
<path d="M61.2422 89.0916C62.1808 88.1481 63.4555 87.6178 64.7849 87.6178C66.1143 87.6178 67.389 88.1481 68.3276 89.0916L94.647 115.489C96.6061 117.454 96.6061 120.635 94.647 122.595C93.7085 123.538 92.4338 124.068 91.1043 124.068C89.7749 124.068 88.5002 123.538 87.5617 122.595L61.2422 96.1971C59.2832 94.2374 59.2832 91.0567 61.2422 89.0916" stroke="#2A2661" stroke-width="1.63823"/>
<path d="M67.5386 89.4438L94.4212 116.479C95.4608 117.84 95.5645 119.297 95.1038 120.392C94.6424 121.487 94.5789 122.027 92.3099 119.864L64.628 92.0657C63.8226 91.342 63.8226 90.1689 64.628 89.4438C65.4328 88.7188 66.7359 88.7188 67.5386 89.4438Z" fill="white"/>
<path d="M49.2014 58.5613C48.8803 57.813 48.0134 57.4666 47.2651 57.7877C46.5168 58.1087 46.1704 58.9756 46.4915 59.724L49.2014 58.5613ZM50.2102 68.3918C50.5313 69.1401 51.3982 69.4865 52.1465 69.1655C52.8949 68.8444 53.2412 67.9775 52.9202 67.2292L50.2102 68.3918ZM61.0774 59.2375C61.154 58.4268 60.5589 57.7076 59.7482 57.631C58.9375 57.5544 58.2183 58.1496 58.1417 58.9603L61.0774 59.2375ZM57.5069 65.6821C57.4303 66.4927 58.0255 67.212 58.8361 67.2886C59.6468 67.3651 60.3661 66.77 60.4426 65.9593L57.5069 65.6821ZM72.2939 66.8534C72.9519 66.3737 73.0964 65.4514 72.6167 64.7934C72.1369 64.1354 71.2146 63.9909 70.5567 64.4706L72.2939 66.8534ZM62.3935 70.4222C61.7355 70.902 61.591 71.8242 62.0708 72.4822C62.5505 73.1402 63.4728 73.2847 64.1307 72.805L62.3935 70.4222ZM46.4915 59.724L50.2102 68.3918L52.9202 67.2292L49.2014 58.5613L46.4915 59.724ZM58.1417 58.9603L57.5069 65.6821L60.4426 65.9593L61.0774 59.2375L58.1417 58.9603ZM70.5567 64.4706L62.3935 70.4222L64.1307 72.805L72.2939 66.8534L70.5567 64.4706Z" fill="#2A2661"/>
</svg>
