<svg width="68" height="68" viewBox="0 0 68 68" fill="none" xmlns="http://www.w3.org/2000/svg">
<g id="Group 349">
<g id="Group" filter="url(#filter0_d_2035_2889)">
<path id="Rectangle 4" d="M58 31C58 17.7452 47.2548 7 34 7C20.7452 7 10 17.7452 10 31C10 44.2548 20.7452 55 34 55C47.2548 55 58 44.2548 58 31Z" fill="white"/>
</g>
<path id="Vector" fill-rule="evenodd" clip-rule="evenodd" d="M26.5339 28.196C26.8045 28.7023 26.7997 29.504 27.7681 30.2775C29.8472 31.9371 32.5197 31.1636 33.4833 29.4008C33.6115 29.1664 33.9248 28.285 33.996 28.1913C34.2808 28.6788 34.2666 29.3961 35.2444 30.2728C37.2381 32.0497 40.7319 31.2667 41.4439 28.1819L41.6385 28.5945C41.8806 29.3727 42.2366 29.8696 42.887 30.4088C45.3458 32.4482 49.5089 30.3713 48.9487 26.8786C48.8775 26.4285 47.9614 23.7797 47.7573 23.1233C47.3823 21.9231 46.9218 20.6151 46.5611 19.4103C46.1813 18.1632 45.868 17.0333 43.974 17.0146C40.6559 16.9818 37.3188 17.0146 33.996 17.0146C30.6732 17.0146 27.3456 17.0005 24.018 17.0146C23.3155 17.0193 22.6034 17.2771 22.2237 17.6522C21.7585 18.121 21.6493 18.693 21.4405 19.3493C21.0465 20.6151 20.643 21.8434 20.23 23.1093C20.0116 23.7703 19.1382 26.3488 19.0528 26.8551C18.5591 29.865 21.6256 32.0403 24.2554 30.9011C25.2237 30.4838 26.0449 29.6165 26.344 28.6413C26.4247 28.3694 26.3915 28.3225 26.5339 28.196ZM22.931 32.481L21.7348 32.4435L21.7205 40.3994C21.711 42.5137 23.2016 43.9905 25.3092 43.9952C30.9865 43.9952 37.1242 43.9483 42.8775 43.9999C44.5104 44.014 46.2573 42.5981 46.2573 40.6525L46.262 32.4388C45.9914 32.4107 45.2462 32.4904 44.8712 32.481C44.2731 32.4669 44.0025 32.2794 43.4993 32.2419L43.4946 40.2071C43.4946 41.4261 43.0294 41.1917 41.9756 41.1917C37.0198 41.1917 32.064 41.1682 27.113 41.2339L25.4373 41.2245C24.2696 41.2245 24.4737 40.6619 24.469 39.1898L24.4832 32.2513C24.0038 32.2466 23.6193 32.481 22.931 32.481Z" fill="#3A589E"/>
</g>
<defs>
<filter id="filter0_d_2035_2889" x="0" y="0" width="68" height="68" filterUnits="userSpaceOnUse" color-interpolation-filters="sRGB">
<feFlood flood-opacity="0" result="BackgroundImageFix"/>
<feColorMatrix in="SourceAlpha" type="matrix" values="0 0 0 0 0 0 0 0 0 0 0 0 0 0 0 0 0 0 127 0" result="hardAlpha"/>
<feOffset dy="3"/>
<feGaussianBlur stdDeviation="5"/>
<feColorMatrix type="matrix" values="0 0 0 0 0 0 0 0 0 0 0 0 0 0 0 0 0 0 0.102 0"/>
<feBlend mode="normal" in2="BackgroundImageFix" result="effect1_dropShadow_2035_2889"/>
<feBlend mode="normal" in="SourceGraphic" in2="effect1_dropShadow_2035_2889" result="shape"/>
</filter>
</defs>
</svg>
