<svg width="68" height="68" viewBox="0 0 68 68" fill="none" xmlns="http://www.w3.org/2000/svg">
<g id="Group 350">
<g id="Group" filter="url(#filter0_d_2035_2901)">
<path id="Rectangle 5" d="M58 31C58 17.7452 47.2548 7 34 7C20.7452 7 10 17.7452 10 31C10 44.2548 20.7452 55 34 55C47.2548 55 58 44.2548 58 31Z" fill="white"/>
</g>
<g id="Group 512">
<g id="Group 511">
<path id="Vector" fill-rule="evenodd" clip-rule="evenodd" d="M47.0654 24.1932V38.0121C47.0624 38.4479 46.9376 38.8743 46.7051 39.2429C46.4725 39.6115 46.1414 39.9077 45.7493 40.098L34.0362 45.7506C33.7202 45.9033 33.3738 45.9826 33.0228 45.9826C32.6719 45.9826 32.3254 45.9033 32.0094 45.7506L25.0869 42.4012L20.3161 40.0651C19.922 39.8773 19.5892 39.5817 19.3563 39.2125C19.1234 38.8433 18.9998 38.4157 19 37.9792V24.1603C19.0028 23.727 19.1277 23.3032 19.3605 22.9377C19.5933 22.5722 19.9245 22.2798 20.3161 22.0941L32.0226 16.2441C32.3457 16.0836 32.7015 16 33.0623 16C33.4231 16 33.7789 16.0836 34.102 16.2441L45.7888 22.1204C46.1725 22.314 46.495 22.6102 46.7204 22.9762C46.9457 23.3421 47.0652 23.7635 47.0654 24.1932Z" fill="#FF0211"/>
<path id="Vector_2" d="M42.7091 30.8131C46.1834 30.8131 48.9999 27.9966 48.9999 24.5223C48.9999 21.048 46.1834 18.2314 42.7091 18.2314C39.2347 18.2314 36.4182 21.048 36.4182 24.5223C36.4182 27.9966 39.2347 30.8131 42.7091 30.8131Z" fill="#4DC9FF"/>
<path id="Vector_3" d="M22.8626 36.0379L21.6321 35.4325V31.7935C21.6321 30.7275 22.2309 29.6615 23.468 29.7865C23.9752 29.8731 24.4533 30.0836 24.8596 30.3992C25.266 30.7149 25.5881 31.126 25.7975 31.5961C25.9823 31.4227 26.2061 31.2962 26.4501 31.2275C26.694 31.1588 26.9509 31.1498 27.1991 31.2013C27.8571 31.2868 30.2195 32.1752 30.2195 35.4062V39.69L28.8705 39.032V35.0048C28.9121 34.4863 28.7633 33.9705 28.452 33.5539C28.1407 33.1372 27.6883 32.8483 27.1793 32.7411C26.7779 32.7016 26.4292 33.0241 26.4226 33.715C26.416 34.4059 26.4226 37.8014 26.4226 37.8014L25.1855 37.196V33.386C25.1855 31.708 24.0997 31.1881 23.6259 31.1355C23.3561 31.1355 22.8626 31.2737 22.8626 32.1357V36.0379Z" fill="white"/>
</g>
</g>
</g>
<defs>
<filter id="filter0_d_2035_2901" x="0" y="0" width="68" height="68" filterUnits="userSpaceOnUse" color-interpolation-filters="sRGB">
<feFlood flood-opacity="0" result="BackgroundImageFix"/>
<feColorMatrix in="SourceAlpha" type="matrix" values="0 0 0 0 0 0 0 0 0 0 0 0 0 0 0 0 0 0 127 0" result="hardAlpha"/>
<feOffset dy="3"/>
<feGaussianBlur stdDeviation="5"/>
<feColorMatrix type="matrix" values="0 0 0 0 0 0 0 0 0 0 0 0 0 0 0 0 0 0 0.102 0"/>
<feBlend mode="normal" in2="BackgroundImageFix" result="effect1_dropShadow_2035_2901"/>
<feBlend mode="normal" in="SourceGraphic" in2="effect1_dropShadow_2035_2901" result="shape"/>
</filter>
</defs>
</svg>
